<?xml version="1.0" encoding="utf-8"?>
<!-- Generator: Adobe Illustrator 16.0.0, SVG Export Plug-In . SVG Version: 6.00 Build 0)  -->
<!DOCTYPE svg PUBLIC "-//W3C//DTD SVG 1.1//EN" "http://www.w3.org/Graphics/SVG/1.1/DTD/svg11.dtd">
<svg version="1.1" xmlns="http://www.w3.org/2000/svg" xmlns:xlink="http://www.w3.org/1999/xlink" x="0px" y="0px"
	 width="595.28px" height="850.39px" viewBox="0 0 595.28 850.39" enable-background="new 0 0 595.28 850.39" xml:space="preserve">
<g id="Layer_1">
	
		<rect x="28" y="209" fill="#ED1C24" stroke="#FFFFFF" stroke-width="1.6417" stroke-linecap="round" stroke-linejoin="round" stroke-miterlimit="10" width="535" height="170"/>
	<path fill="#FFCB05" d="M531.305,309.545c0,5.777-4.683,10.46-10.459,10.46h-456.6c-5.777,0-10.46-4.683-10.46-10.46l0,0
		c0-5.777,4.683-10.46,10.46-10.46h456.6C526.622,299.085,531.305,303.769,531.305,309.545L531.305,309.545z"/>
	<g>
		
			<path fill="#FFFFFF" stroke="#FFFFFF" stroke-width="10.0501" stroke-linecap="round" stroke-linejoin="round" stroke-miterlimit="10" d="
			M286,336.031c0,0,7-6.481,9.333-9.333s0-8.037-4.407-4.406c-4.406,3.629,1.815-1.297,4.407-3.631
			c2.593-2.333-1.556-8.554-5.185-5.702s-5.185,4.925-5.185,4.925s3.889-3.889,6.221-6.48c2.334-2.593-1.814-7.259-4.406-4.926
			c-2.593,2.333-7.519,6.999-7.519,6.999s13.74-13.221,16.073-16.332c2.333-3.11-2.073-7.518-5.703-3.888
			s-19.962,19.442-19.962,19.442s-0.259-1.037-0.259-7.258c0-6.223-7.777-6.223-7.777,0c0,6.221,0.259,15.035,0,20.997
			c-0.26,5.964,4.407,8.556,9.073,10.889C275.372,339.66,282.89,338.364,286,336.031z"/>
		
			<path fill="#FFFFFF" stroke="#000000" stroke-width="1.6417" stroke-linecap="round" stroke-linejoin="round" stroke-miterlimit="10" d="
			M286,336c0,0,7-6.481,9.333-9.333s0-8.037-4.407-4.406c-4.406,3.629,1.815-1.297,4.407-3.631c2.593-2.332-1.556-8.554-5.185-5.703
			c-3.629,2.852-5.185,4.926-5.185,4.926s3.889-3.889,6.221-6.479c2.334-2.594-1.814-7.26-4.406-4.926
			c-2.593,2.332-7.519,6.998-7.519,6.998s13.74-13.221,16.073-16.331s-2.073-7.519-5.703-3.889s-19.962,19.442-19.962,19.442
			s-0.259-1.037-0.259-7.258c0-6.222-7.777-6.223-7.777,0c0,6.221,0.259,15.035,0,20.998c-0.26,5.963,4.407,8.555,9.073,10.888
			C275.372,339.63,282.89,338.333,286,336z"/>
	</g>
	<g>
		<path opacity="0.6" fill="#FFFFFF" d="M73.52,276.087l-3.755,15.429h-7.062l-6-23.062h6.163l2.449,10.653
			c0.531,2.408,0.898,4.326,1.184,7.184h0.164c0.245-2.612,0.734-5.062,1.265-7.143l2.857-10.694h5.877l2.49,10.53
			c0.572,2.408,1.143,4.776,1.266,7.307h0.163c0.286-2.53,0.775-4.816,1.388-7.388l2.449-10.449h5.469l-5.959,23.062h-7.184
			l-3.061-15.429H73.52z"/>
		<path opacity="0.6" fill="#FFFFFF" d="M107.359,276.087l-3.755,15.429h-7.062l-6-23.062h6.163l2.449,10.653
			c0.531,2.408,0.898,4.326,1.184,7.184h0.164c0.245-2.612,0.734-5.062,1.265-7.143l2.857-10.694h5.877l2.49,10.53
			c0.572,2.408,1.143,4.776,1.266,7.307h0.163c0.286-2.53,0.775-4.816,1.388-7.388l2.449-10.449h5.469l-5.959,23.062h-7.184
			l-3.061-15.429H107.359z"/>
		<path opacity="0.6" fill="#FFFFFF" d="M141.199,276.087l-3.755,15.429h-7.062l-6-23.062h6.163l2.449,10.653
			c0.531,2.408,0.898,4.326,1.184,7.184h0.164c0.245-2.612,0.734-5.062,1.265-7.143l2.857-10.694h5.877l2.49,10.53
			c0.572,2.408,1.143,4.776,1.266,7.307h0.163c0.286-2.53,0.775-4.816,1.388-7.388l2.449-10.449h5.469l-5.959,23.062h-7.184
			l-3.061-15.429H141.199z"/>
		<path opacity="0.6" fill="#FFFFFF" d="M163.691,283.842c2.327,0,4.082,1.755,4.082,4.123c0,2.163-1.755,3.918-4.082,3.918
			c-2.204,0-3.959-1.755-3.959-3.918C159.732,285.597,161.487,283.842,163.691,283.842z"/>
		<path fill="#FFFFFF" d="M199.488,280.591c0,4.624-2.337,10.925-14.177,10.925h-11.788v-35.619h12.753
			c6.301,0,11.484,2.083,11.484,9.248c0,4.014-2.49,6.555-5.183,7.52v0.204C195.981,273.274,199.488,275.561,199.488,280.591z
			 M185.362,262.299h-4.167v7.876h3.862c3.76,0,5.233-1.931,5.233-3.964C190.291,264.026,189.021,262.299,185.362,262.299z
			 M191.612,280.845c0-3.099-2.591-4.268-5.488-4.268h-4.929v8.536h5.335C190.443,285.113,191.612,282.878,191.612,280.845z"/>
		<path fill="#FFFFFF" d="M228.352,288.873c-2.236,1.83-5.03,3.201-10.518,3.201c-9.044,0-13.668-5.081-13.668-14.989
			c0-9.299,5.183-14.837,13.465-14.837c7.317,0,11.534,4.624,11.534,11.636c0,1.474-0.051,2.896-0.355,5.132h-17.124
			c0.102,4.522,2.134,7.013,7.012,7.013c3.1,0,5.234-1.474,6.301-2.592L228.352,288.873z M211.838,273.935h10.111v-0.762
			c0-3.354-1.422-5.132-4.522-5.132C213.972,268.041,211.94,270.581,211.838,273.935z"/>
		<path fill="#FFFFFF" d="M258.943,291.516h-7.673v-18.241c0-2.947-1.372-4.675-3.963-4.675c-2.235,0-4.065,1.321-4.929,3.404
			v19.512h-7.673v-28.709h5.996l1.524,2.693h0.203c1.728-2.083,4.726-3.404,7.724-3.404c5.589,0,8.79,3.1,8.79,9.553V291.516z"/>
		<path fill="#FFFFFF" d="M288.417,288.873c-2.235,1.83-5.03,3.201-10.518,3.201c-9.045,0-13.669-5.081-13.669-14.989
			c0-9.299,5.183-14.837,13.465-14.837c7.317,0,11.535,4.624,11.535,11.636c0,1.474-0.051,2.896-0.356,5.132h-17.123
			c0.102,4.522,2.134,7.013,7.012,7.013c3.1,0,5.233-1.474,6.301-2.592L288.417,288.873z M271.903,273.935h10.111v-0.762
			c0-3.354-1.423-5.132-4.522-5.132C274.037,268.041,272.005,270.581,271.903,273.935z"/>
		<path fill="#FFFFFF" d="M310.523,253h7.621v38.516h-5.995l-1.22-2.337h-0.203c-0.813,0.812-3.15,2.794-7.012,2.794
			c-6.047,0-10.468-3.963-10.468-13.312c0-12.093,6.504-16.006,12.551-16.006c2.693,0,3.811,0.355,4.726,0.61V253z M310.727,283.487
			V269.87c-0.711-0.56-2.389-1.017-3.811-1.017c-3.15,0-5.895,1.372-5.895,9.146c0,5.589,2.032,7.927,4.979,7.927
			C308.135,285.927,309.659,284.961,310.727,283.487z"/>
		<path fill="#FFFFFF" d="M328.971,250.765c2.591,0,4.521,1.931,4.521,4.573c0,2.388-1.931,4.318-4.521,4.318
			c-2.439,0-4.37-1.931-4.37-4.318C324.601,252.695,326.531,250.765,328.971,250.765z M325.261,262.807h7.673v28.709h-7.673V262.807
			z"/>
		<path fill="#FFFFFF" d="M347.722,291.516h-7.673V253h7.673V291.516z M347.925,276.12l7.825-13.313h8.79l-8.435,13.211v0.204
			l8.638,15.294h-9.095l-7.724-15.192V276.12z"/>
		<path fill="#FFFFFF" d="M369.725,282.318V268.65h-3.658v-4.776l3.71-1.524l2.642-6.758h4.878v7.215h7.165v5.844h-7.165v13.871
			c0,1.982,1.118,2.998,2.998,2.998c1.22,0,2.795-0.406,3.912-1.27l1.982,5.741c-0.966,0.712-3.201,1.778-7.978,1.778
			C373.282,291.77,369.725,289.28,369.725,282.318z"/>
		<path opacity="0.6" fill="#FFFFFF" d="M391.885,283.842c2.327,0,4.082,1.755,4.082,4.123c0,2.163-1.755,3.918-4.082,3.918
			c-2.204,0-3.959-1.755-3.959-3.918C387.926,285.597,389.681,283.842,391.885,283.842z"/>
		<path opacity="0.6" fill="#FFFFFF" d="M399.354,280.087c0-7.103,2.979-12.041,10.612-12.041c7.96,0,10.449,4.734,10.449,11.878
			c0,7.102-3.021,12.041-10.653,12.041C401.844,291.965,399.354,287.229,399.354,280.087z M409.966,287.148
			c3.144,0,4.123-2.286,4.123-6.98c0-4.775-1.184-7.306-4.367-7.306c-2.816,0-4.041,2.285-4.041,6.979
			C405.681,284.617,406.864,287.148,409.966,287.148z"/>
		<path opacity="0.6" fill="#FFFFFF" d="M444.214,291.516h-6.163v-14.653c0-2.367-1.103-3.755-3.184-3.755
			c-1.796,0-3.266,1.061-3.959,2.734v15.674h-6.164v-23.062h4.816l1.225,2.163h0.163c1.388-1.674,3.796-2.734,6.204-2.734
			c4.49,0,7.062,2.489,7.062,7.673V291.516z"/>
		<path opacity="0.6" fill="#FFFFFF" d="M455.849,260.576v23.674c0,1.715,0.775,2.286,1.918,2.286c0.449,0,0.653-0.041,0.857-0.082
			v4.857c-0.735,0.286-1.592,0.571-2.939,0.571c-3.755,0-6-2.204-6-6.041v-25.266H455.849z"/>
		<path opacity="0.6" fill="#FFFFFF" d="M465.646,258.78c2.081,0,3.632,1.551,3.632,3.674c0,1.918-1.551,3.469-3.632,3.469
			c-1.96,0-3.511-1.551-3.511-3.469C462.135,260.331,463.686,258.78,465.646,258.78z M462.665,268.454h6.164v23.062h-6.164V268.454z
			"/>
		<path opacity="0.6" fill="#FFFFFF" d="M494.014,291.516h-6.163v-14.653c0-2.367-1.103-3.755-3.184-3.755
			c-1.796,0-3.266,1.061-3.959,2.734v15.674h-6.164v-23.062h4.816l1.225,2.163h0.163c1.388-1.674,3.796-2.734,6.204-2.734
			c4.49,0,7.062,2.489,7.062,7.673V291.516z"/>
		<path opacity="0.6" fill="#FFFFFF" d="M517.689,289.394c-1.796,1.469-4.041,2.571-8.449,2.571c-7.266,0-10.98-4.082-10.98-12.041
			c0-7.47,4.164-11.919,10.816-11.919c5.878,0,9.266,3.715,9.266,9.347c0,1.185-0.04,2.327-0.285,4.123h-13.756
			c0.082,3.633,1.715,5.633,5.633,5.633c2.49,0,4.204-1.184,5.062-2.082L517.689,289.394z M504.424,277.393h8.122v-0.612
			c0-2.693-1.143-4.122-3.633-4.122C506.138,272.658,504.505,274.699,504.424,277.393z"/>
	</g>
	<g>
		<text transform="matrix(1 0 0 1 93.2598 315.7471)" font-family="'KohinoorTelugu-Bold'" font-size="18.1912" letter-spacing="3">0499 388 227</text>
	</g>
	<text transform="matrix(1 0 0 1 304.2539 315.748)"><tspan x="0" y="0" font-family="'KohinoorTelugu-Bold'" font-size="17.2817" letter-spacing="3">Web</tspan><tspan x="47.092" y="0" font-family="'KohinoorTelugu-Regular'" font-size="17.2817" letter-spacing="3">Shop-</tspan><tspan x="108.648" y="0" font-family="'KohinoorTelugu-Bold'" font-size="17.2817" letter-spacing="3">Developer</tspan></text>
	<path d="M64.446,304.352c0,6.056,4.909,10.956,10.956,10.956c0.267,0,0.494-0.184,0.553-0.439l0.566-2.456
		c0.062-0.267-0.078-0.541-0.33-0.652l-2.645-1.133c-0.231-0.099-0.5-0.033-0.661,0.163l-1.171,1.431
		c-1.848-0.867-3.334-2.374-4.184-4.185l1.431-1.17c0.196-0.158,0.262-0.43,0.163-0.662l-1.134-2.644
		c-0.108-0.25-0.382-0.39-0.649-0.328l-2.456,0.565C64.628,303.858,64.446,304.087,64.446,304.352z"/>
</g>
<g id="Layer_2">
</g>
</svg>
