<?xml version="1.0" encoding="utf-8"?>
<!-- Generator: Adobe Illustrator 16.0.0, SVG Export Plug-In . SVG Version: 6.00 Build 0)  -->
<!DOCTYPE svg PUBLIC "-//W3C//DTD SVG 1.1//EN" "http://www.w3.org/Graphics/SVG/1.1/DTD/svg11.dtd">
<svg version="1.1" id="Layer_1" xmlns="http://www.w3.org/2000/svg" xmlns:xlink="http://www.w3.org/1999/xlink" x="0px" y="0px"
	 width="350px" height="350px" viewBox="0 0 350 350" enable-background="new 0 0 350 350" xml:space="preserve">
<desc>Created with Fabric.js 1.7.22</desc>
<g id="icon" transform="translate(-1.9444444444444287 -1.9444444444444287) scale(3.89 3.89)">
	<path fill="#FFFFFF" d="M76.028,21.694H61.663c-2.264,0-4.107-1.843-4.107-4.108V3.223h2.881v14.364
		c0,0.676,0.55,1.227,1.225,1.227h14.365v2.88H76.028z"/>
	<path fill="#FFFFFF" d="M73.099,88.218H16.901c-2.409,0-4.368-1.96-4.368-4.368V6.15c0-2.409,1.959-4.368,4.368-4.368h40.883
		c1.167,0,2.264,0.454,3.089,1.279l15.315,15.316c0.825,0.824,1.28,1.922,1.28,3.089v62.385
		C77.468,86.259,75.508,88.218,73.099,88.218z M16.901,4.663c-0.82,0-1.487,0.667-1.487,1.487v77.7c0,0.82,0.667,1.487,1.487,1.487
		H73.1c0.82,0,1.487-0.667,1.487-1.487V21.466c0-0.397-0.154-0.77-0.436-1.051L58.835,5.098c-0.277-0.277-0.66-0.435-1.051-0.435
		H16.901z"/>
	<path fill="#FFFFFF" d="M49.089,35.18h-8.176c-1.44,0-2.609,1.171-2.609,2.61v12.334c-0.721-0.091-1.477,0.14-2.03,0.694
		l-6.022,6.022c-0.461,0.46-0.714,1.073-0.714,1.725c0,0.652,0.253,1.264,0.714,1.724l13.024,13.026
		c0.46,0.46,1.073,0.714,1.724,0.714c0.003,0,0.007-0.001,0.009,0c0.646,0,1.258-0.253,1.719-0.714l13.025-13.026
		c0.46-0.46,0.715-1.073,0.715-1.724c0-0.652-0.255-1.264-0.715-1.725l-6.022-6.022c-0.553-0.553-1.309-0.785-2.03-0.694V37.79
		C51.698,36.351,50.527,35.18,49.089,35.18z M41.183,38.061h7.632v18.29l3.187-3.184l5.397,5.397L45,70.966L32.599,58.564
		l5.397-5.397l3.187,3.184V38.061z"/>
</g>
<g enable-background="new    ">
	<path fill="#FFFFFF" d="M104.38,25.753c16.991,0,24.625,7.511,26.965,10.097l-12.312,13.668c-2.832-3.448-6.896-7.88-16.007-7.88
		c-11.573,0-17.483,8.742-17.483,28.073c0,17.853,6.155,28.565,19.084,28.565c8.003,0,12.806-4.187,15.391-7.265l10.343,13.298
		c-3.693,4.433-12.436,10.097-27.334,10.097c-26.472,0-36.814-17.73-36.814-43.464C66.211,43.73,79.139,25.753,104.38,25.753z"/>
	<path fill="#FFFFFF" d="M134.297,26.862h20.932l13.297,46.789c2.218,8.002,4.434,15.636,6.157,23.886h0.493
		c1.602-8.003,3.447-15.637,5.788-24.01l13.297-46.665h19.824l-27.705,86.312h-24.378L134.297,26.862z"/>
</g>
</svg>
