<?xml version="1.0" encoding="utf-8"?>
<!-- Generator: Adobe Illustrator 16.0.0, SVG Export Plug-In . SVG Version: 6.00 Build 0)  -->
<!DOCTYPE svg PUBLIC "-//W3C//DTD SVG 1.1//EN" "http://www.w3.org/Graphics/SVG/1.1/DTD/svg11.dtd">
<svg version="1.1" id="Layer_1" xmlns="http://www.w3.org/2000/svg" xmlns:xlink="http://www.w3.org/1999/xlink" x="0px" y="0px"
	 width="350px" height="350px" viewBox="0 0 350 350" enable-background="new 0 0 350 350" xml:space="preserve">
<desc>Created with Fabric.js 1.7.22</desc>
<g id="icon" transform="translate(-1.9444444444444287 -1.9444444444444287) scale(3.89 3.89)">
	<path fill="#FFFFFF" d="M75.546,78.738H14.455C6.484,78.738,0,72.254,0,64.283V25.716c0-7.97,6.485-14.455,14.455-14.455h61.091
		c7.97,0,14.454,6.485,14.454,14.455v38.567C90,72.254,83.516,78.738,75.546,78.738z M14.455,15.488
		c-5.64,0-10.228,4.588-10.228,10.228v38.567c0,5.64,4.588,10.229,10.228,10.229h61.091c5.64,0,10.228-4.589,10.228-10.229V25.716
		c0-5.64-4.588-10.228-10.228-10.228H14.455z"/>
	<path fill="#FFFFFF" d="M11.044,25.917C21.848,36.445,32.652,46.972,43.456,57.5c2.014,1.962,5.105-1.122,3.088-3.088
		C35.74,43.885,24.936,33.357,14.132,22.83C12.118,20.867,9.027,23.952,11.044,25.917L11.044,25.917z"/>
	<path fill="#FFFFFF" d="M46.544,57.5c10.804-10.527,21.608-21.055,32.412-31.582c2.016-1.965-1.073-5.051-3.088-3.088
		C65.064,33.357,54.26,43.885,43.456,54.412C41.44,56.377,44.529,59.463,46.544,57.5L46.544,57.5z"/>
	<path fill="#FFFFFF" d="M78.837,64.952c-7.189-6.818-14.379-13.635-21.568-20.453c-2.039-1.933-5.132,1.149-3.088,3.088
		C61.37,54.405,68.56,61.222,75.749,68.04C77.788,69.973,80.881,66.89,78.837,64.952L78.837,64.952z"/>
	<path fill="#FFFFFF" d="M14.446,68.039c7.189-6.818,14.379-13.635,21.568-20.453c2.043-1.938-1.048-5.022-3.088-3.088
		c-7.189,6.818-14.379,13.635-21.568,20.453C9.315,66.889,12.406,69.974,14.446,68.039L14.446,68.039z"/>
</g>
</svg>
