<?xml version="1.0" encoding="utf-8"?>
<!-- Generator: Adobe Illustrator 16.0.0, SVG Export Plug-In . SVG Version: 6.00 Build 0)  -->
<!DOCTYPE svg PUBLIC "-//W3C//DTD SVG 1.1//EN" "http://www.w3.org/Graphics/SVG/1.1/DTD/svg11.dtd">
<svg version="1.1" id="Layer_1" xmlns="http://www.w3.org/2000/svg" xmlns:xlink="http://www.w3.org/1999/xlink" x="0px" y="0px"
	 width="595.279px" height="850.39px" viewBox="0 0 595.279 850.39" enable-background="new 0 0 595.279 850.39"
	 xml:space="preserve">
<g id="Layer_1_1_">
	<path fill="#FFCB05" d="M531.305,131.874c0,5.777-4.684,10.46-10.459,10.46h-456.6c-5.777,0-10.46-4.683-10.46-10.46l0,0
		c0-5.777,4.683-10.46,10.46-10.46h456.6C526.621,121.414,531.305,126.098,531.305,131.874L531.305,131.874z"/>
	<g>
		
			<path fill="#FFFFFF" stroke="#FFFFFF" stroke-width="10.0501" stroke-linecap="round" stroke-linejoin="round" stroke-miterlimit="10" d="
			M286,158.36c0,0,7-6.481,9.333-9.333c2.333-2.852,0-8.037-4.407-4.406c-4.406,3.629,1.815-1.297,4.407-3.631
			c2.593-2.333-1.557-8.554-5.186-5.702s-5.185,4.925-5.185,4.925s3.889-3.889,6.221-6.48c2.334-2.593-1.813-7.259-4.406-4.926
			s-7.519,6.999-7.519,6.999s13.74-13.221,16.073-16.332c2.333-3.11-2.073-7.518-5.703-3.888s-19.962,19.442-19.962,19.442
			s-0.259-1.037-0.259-7.258c0-6.223-7.777-6.223-7.777,0c0,6.221,0.259,15.035,0,20.997c-0.26,5.964,4.407,8.556,9.073,10.889
			C275.372,161.989,282.89,160.693,286,158.36z"/>
		
			<path fill="#FFFFFF" stroke="#000000" stroke-width="1.6417" stroke-linecap="round" stroke-linejoin="round" stroke-miterlimit="10" d="
			M286,158.329c0,0,7-6.481,9.333-9.333s0-8.037-4.407-4.406c-4.406,3.629,1.815-1.297,4.407-3.631
			c2.593-2.332-1.557-8.554-5.186-5.703c-3.629,2.852-5.185,4.926-5.185,4.926s3.889-3.889,6.221-6.479
			c2.334-2.594-1.813-7.26-4.406-4.926c-2.593,2.332-7.519,6.998-7.519,6.998s13.74-13.221,16.073-16.331
			c2.333-3.11-2.073-7.52-5.703-3.889c-3.63,3.63-19.962,19.442-19.962,19.442s-0.259-1.037-0.259-7.258
			c0-6.222-7.777-6.223-7.777,0c0,6.221,0.259,15.035,0,20.998c-0.26,5.963,4.407,8.555,9.073,10.888
			C275.372,161.958,282.89,160.662,286,158.329z"/>
	</g>
	<g>
		<path opacity="0.6" fill="#FFFFFF" enable-background="new    " d="M73.52,98.416l-3.755,15.429h-7.062l-6-23.062h6.163
			l2.448,10.653c0.531,2.408,0.898,4.326,1.185,7.184h0.164c0.245-2.612,0.733-5.062,1.265-7.143l2.857-10.694h5.877l2.489,10.53
			c0.572,2.408,1.144,4.776,1.267,7.307h0.163c0.286-2.53,0.774-4.816,1.388-7.388l2.449-10.449h5.469l-5.959,23.062h-7.184
			l-3.062-15.429H73.52z"/>
		<path opacity="0.6" fill="#FFFFFF" enable-background="new    " d="M107.359,98.416l-3.755,15.429h-7.062l-6-23.062h6.163
			l2.448,10.653c0.531,2.408,0.898,4.326,1.185,7.184h0.164c0.245-2.612,0.733-5.062,1.265-7.143l2.857-10.694h5.877l2.49,10.53
			c0.571,2.408,1.143,4.776,1.266,7.307h0.163c0.286-2.53,0.774-4.816,1.388-7.388l2.449-10.449h5.469l-5.959,23.062h-7.184
			l-3.062-15.429H107.359z"/>
		<path opacity="0.6" fill="#FFFFFF" enable-background="new    " d="M141.199,98.416l-3.756,15.429h-7.062l-6-23.062h6.163
			l2.449,10.653c0.53,2.408,0.897,4.326,1.184,7.184h0.164c0.245-2.612,0.734-5.062,1.265-7.143l2.857-10.694h5.877l2.49,10.53
			c0.571,2.408,1.143,4.776,1.266,7.307h0.163c0.286-2.53,0.775-4.816,1.388-7.388l2.449-10.449h5.469l-5.959,23.062h-7.184
			l-3.062-15.429H141.199z"/>
		<path opacity="0.6" fill="#FFFFFF" enable-background="new    " d="M163.691,106.17c2.327,0,4.082,1.755,4.082,4.123
			c0,2.163-1.755,3.918-4.082,3.918c-2.204,0-3.959-1.755-3.959-3.918C159.732,107.926,161.487,106.17,163.691,106.17z"/>
		<path fill="#FFFFFF" d="M199.488,102.919c0,4.624-2.337,10.925-14.177,10.925h-11.788V78.226h12.753
			c6.302,0,11.484,2.083,11.484,9.248c0,4.014-2.49,6.555-5.183,7.52v0.204C195.981,95.603,199.488,97.89,199.488,102.919z
			 M185.362,84.627h-4.167v7.876h3.862c3.76,0,5.233-1.931,5.233-3.964C190.291,86.354,189.021,84.627,185.362,84.627z
			 M191.612,103.173c0-3.099-2.591-4.268-5.487-4.268h-4.93v8.536h5.335C190.443,107.442,191.612,105.207,191.612,103.173z"/>
		<path fill="#FFFFFF" d="M228.352,111.202c-2.235,1.83-5.03,3.201-10.518,3.201c-9.044,0-13.668-5.081-13.668-14.989
			c0-9.299,5.183-14.837,13.465-14.837c7.316,0,11.534,4.624,11.534,11.636c0,1.474-0.052,2.896-0.355,5.132h-17.124
			c0.103,4.522,2.134,7.013,7.012,7.013c3.101,0,5.234-1.474,6.302-2.592L228.352,111.202z M211.838,96.264h10.111v-0.762
			c0-3.354-1.423-5.132-4.522-5.132C213.972,90.37,211.94,92.91,211.838,96.264z"/>
		<path fill="#FFFFFF" d="M258.943,113.845h-7.673V95.604c0-2.947-1.372-4.675-3.963-4.675c-2.235,0-4.064,1.321-4.929,3.404v19.512
			h-7.673V85.136h5.996l1.523,2.693h0.203c1.728-2.083,4.726-3.404,7.724-3.404c5.59,0,8.79,3.1,8.79,9.553L258.943,113.845
			L258.943,113.845z"/>
		<path fill="#FFFFFF" d="M288.417,111.202c-2.235,1.83-5.03,3.201-10.519,3.201c-9.045,0-13.669-5.081-13.669-14.989
			c0-9.299,5.184-14.837,13.465-14.837c7.317,0,11.535,4.624,11.535,11.636c0,1.474-0.051,2.896-0.355,5.132h-17.123
			c0.102,4.522,2.134,7.013,7.012,7.013c3.1,0,5.233-1.474,6.301-2.592L288.417,111.202z M271.903,96.264h10.111v-0.762
			c0-3.354-1.423-5.132-4.521-5.132C274.037,90.37,272.005,92.91,271.903,96.264z"/>
		<path fill="#FFFFFF" d="M310.523,75.329h7.621v38.516h-5.995l-1.22-2.337h-0.203c-0.813,0.812-3.15,2.794-7.012,2.794
			c-6.047,0-10.468-3.963-10.468-13.312c0-12.093,6.504-16.006,12.551-16.006c2.692,0,3.811,0.355,4.726,0.61V75.329L310.523,75.329
			z M310.727,105.815V92.199c-0.711-0.56-2.389-1.017-3.812-1.017c-3.149,0-5.895,1.372-5.895,9.146
			c0,5.589,2.032,7.927,4.979,7.927C308.135,108.255,309.658,107.29,310.727,105.815z"/>
		<path fill="#FFFFFF" d="M328.971,73.094c2.591,0,4.521,1.931,4.521,4.573c0,2.388-1.931,4.318-4.521,4.318
			c-2.439,0-4.37-1.931-4.37-4.318C324.601,75.023,326.531,73.094,328.971,73.094z M325.261,85.136h7.673v28.709h-7.673V85.136z"/>
		<path fill="#FFFFFF" d="M347.722,113.845h-7.673V75.329h7.673V113.845z M347.925,98.449l7.825-13.313h8.789l-8.435,13.211v0.204
			l8.638,15.294h-9.095l-7.724-15.192L347.925,98.449L347.925,98.449z"/>
		<path fill="#FFFFFF" d="M369.725,104.646V90.979h-3.658v-4.776l3.71-1.524l2.643-6.758h4.878v7.215h7.165v5.844h-7.165v13.871
			c0,1.982,1.117,2.998,2.998,2.998c1.22,0,2.795-0.406,3.911-1.27l1.982,5.741c-0.966,0.712-3.201,1.778-7.978,1.778
			C373.281,114.099,369.725,111.609,369.725,104.646z"/>
		<path opacity="0.6" fill="#FFFFFF" enable-background="new    " d="M391.885,106.17c2.327,0,4.082,1.755,4.082,4.123
			c0,2.163-1.755,3.918-4.082,3.918c-2.204,0-3.959-1.755-3.959-3.918C387.926,107.926,389.681,106.17,391.885,106.17z"/>
		<path opacity="0.6" fill="#FFFFFF" enable-background="new    " d="M399.354,102.416c0-7.103,2.979-12.041,10.612-12.041
			c7.96,0,10.448,4.734,10.448,11.878c0,7.102-3.021,12.041-10.652,12.041C401.844,114.293,399.354,109.558,399.354,102.416z
			 M409.966,109.477c3.144,0,4.123-2.286,4.123-6.98c0-4.775-1.185-7.306-4.367-7.306c-2.816,0-4.041,2.285-4.041,6.979
			C405.681,106.946,406.864,109.477,409.966,109.477z"/>
		<path opacity="0.6" fill="#FFFFFF" enable-background="new    " d="M444.214,113.845h-6.163V99.191
			c0-2.367-1.104-3.755-3.185-3.755c-1.796,0-3.266,1.061-3.959,2.734v15.674h-6.164V90.783h4.816l1.225,2.163h0.163
			c1.389-1.674,3.796-2.734,6.204-2.734c4.49,0,7.062,2.489,7.062,7.673V113.845L444.214,113.845z"/>
		<path opacity="0.6" fill="#FFFFFF" enable-background="new    " d="M455.849,82.905v23.674c0,1.715,0.774,2.286,1.918,2.286
			c0.449,0,0.653-0.041,0.856-0.082v4.857c-0.734,0.286-1.592,0.571-2.938,0.571c-3.755,0-6-2.204-6-6.041V82.904L455.849,82.905
			L455.849,82.905z"/>
		<path opacity="0.6" fill="#FFFFFF" enable-background="new    " d="M465.646,81.109c2.081,0,3.632,1.551,3.632,3.674
			c0,1.918-1.551,3.469-3.632,3.469c-1.96,0-3.511-1.551-3.511-3.469C462.135,82.66,463.686,81.109,465.646,81.109z M462.664,90.783
			h6.164v23.062h-6.164V90.783z"/>
		<path opacity="0.6" fill="#FFFFFF" enable-background="new    " d="M494.014,113.845h-6.163V99.191
			c0-2.367-1.104-3.755-3.184-3.755c-1.797,0-3.267,1.061-3.96,2.734v15.674h-6.163V90.783h4.815l1.226,2.163h0.162
			c1.389-1.674,3.797-2.734,6.204-2.734c4.49,0,7.062,2.489,7.062,7.673V113.845L494.014,113.845z"/>
		<path opacity="0.6" fill="#FFFFFF" enable-background="new    " d="M517.689,111.723c-1.796,1.469-4.041,2.571-8.449,2.571
			c-7.266,0-10.979-4.082-10.979-12.041c0-7.47,4.164-11.919,10.815-11.919c5.878,0,9.267,3.715,9.267,9.347
			c0,1.185-0.04,2.327-0.285,4.123h-13.756c0.082,3.633,1.715,5.633,5.633,5.633c2.49,0,4.204-1.184,5.062-2.082L517.689,111.723z
			 M504.424,99.722h8.122V99.11c0-2.693-1.144-4.122-3.634-4.122C506.138,94.987,504.505,97.028,504.424,99.722z"/>
	</g>
	<g>
		<g>
			<path d="M93.933,132.056c0-4.401,1.602-6.366,4.603-6.366c3.092,0,4.364,2.037,4.364,6.275c0,4.329-1.654,6.293-4.62,6.293
				C95.151,138.258,93.933,136.221,93.933,132.056z M98.443,136.002c1.438,0,1.802-1.201,1.802-3.947c0-2.783-0.582-4.11-1.893-4.11
				c-1.419,0-1.746,1.237-1.746,4.02C96.606,134.766,97.152,136.002,98.443,136.002z"/>
			<path d="M108.085,135.384l-0.564-2.055l4.603-7.458h3.02v7.348h1.619v2.165h-1.619v2.692h-2.563v-2.692H108.085z
				 M112.814,128.636L111.595,131l-1.382,2.219h2.365v-1.637l0.309-2.947H112.814z"/>
			<path d="M126.075,133.729c-0.31,0.091-0.638,0.091-1.02,0.091c-2.165,0-3.874-1.055-3.874-3.765c0-2.783,1.764-4.365,4.329-4.365
				c2.91,0,4.02,1.855,4.02,4.656c0,3.11-1.801,6.166-3.946,7.73h-3.383v-0.346c2.055-1.182,3.292-2.674,3.909-3.947
				L126.075,133.729z M126.839,131.455c0.055-0.4,0.073-0.619,0.073-1c0-1.946-0.837-2.564-1.655-2.564
				c-0.946,0-1.455,0.473-1.455,1.837c0,1.237,0.582,1.928,1.782,1.928C126.111,131.656,126.476,131.583,126.839,131.455z"/>
			<path d="M139.246,133.729c-0.31,0.091-0.638,0.091-1.02,0.091c-2.165,0-3.874-1.055-3.874-3.765c0-2.783,1.765-4.365,4.329-4.365
				c2.91,0,4.021,1.855,4.021,4.656c0,3.11-1.801,6.166-3.947,7.73h-3.383v-0.346c2.055-1.182,3.292-2.674,3.911-3.947
				L139.246,133.729z M140.01,131.455c0.054-0.4,0.072-0.619,0.072-1c0-1.946-0.836-2.564-1.655-2.564
				c-0.946,0-1.455,0.473-1.455,1.837c0,1.237,0.582,1.928,1.782,1.928C139.282,131.656,139.646,131.583,140.01,131.455z"/>
			<path d="M162.493,131.728c1.128,0.109,2.273,0.782,2.273,2.601c0,2.565-1.746,3.929-4.475,3.929
				c-2.237,0-3.583-1.236-4.038-2.564l2.492-1.127c0.235,0.582,0.764,1.491,1.892,1.491c1.02,0,1.492-0.545,1.492-1.601
				c0-0.909-0.637-1.455-2.074-1.455h-0.818v-2.183h0.801c1.164,0,1.654-0.438,1.654-1.583c0-0.891-0.382-1.346-1.219-1.346
				c-0.782,0-1.237,0.527-1.255,1.4l-2.565-0.218c0.073-1.874,1.401-3.383,3.802-3.383c2.564,0,3.875,1.091,3.875,3.31
				c0,1.419-0.819,2.328-1.837,2.674V131.728z"/>
			<path d="M169.898,134.729c0-1.51,0.946-2.438,2.201-2.819v-0.073c-1.037-0.254-1.892-1.182-1.892-2.601
				c0-2.273,1.474-3.546,4.02-3.546c2.619,0,3.965,1.109,3.965,3.347c0,1.328-0.873,2.273-1.892,2.637v0.073
				c1.146,0.236,2.201,0.964,2.201,2.692c0,2.583-1.691,3.819-4.329,3.819C171.462,138.258,169.898,137.185,169.898,134.729z
				 M172.499,134.565c0,0.964,0.509,1.564,1.728,1.564c1.2,0,1.673-0.582,1.673-1.601c0-0.818-0.328-1.564-1.71-1.564
				C172.863,132.964,172.499,133.784,172.499,134.565z M175.573,129.254c0-0.818-0.418-1.4-1.363-1.4c-1.02,0-1.383,0.563-1.383,1.4
				c0,0.982,0.327,1.601,1.383,1.601C175.246,130.854,175.573,130.254,175.573,129.254z"/>
			<path d="M183.759,134.729c0-1.51,0.946-2.438,2.201-2.819v-0.073c-1.037-0.254-1.893-1.182-1.893-2.601
				c0-2.273,1.475-3.546,4.021-3.546c2.619,0,3.965,1.109,3.965,3.347c0,1.328-0.873,2.273-1.892,2.637v0.073
				c1.146,0.236,2.2,0.964,2.2,2.692c0,2.583-1.69,3.819-4.328,3.819C185.324,138.258,183.759,137.185,183.759,134.729z
				 M186.36,134.565c0,0.964,0.51,1.564,1.729,1.564c1.2,0,1.673-0.582,1.673-1.601c0-0.818-0.328-1.564-1.71-1.564
				C186.724,132.964,186.36,133.784,186.36,134.565z M189.434,129.254c0-0.818-0.418-1.4-1.364-1.4c-1.019,0-1.383,0.563-1.383,1.4
				c0,0.982,0.328,1.601,1.383,1.601C189.107,130.854,189.434,130.254,189.434,129.254z"/>
			<path d="M209.754,135.983l2.165-0.109h2.655v2.201h-7.566l-0.455-2.219c1.91-1.819,3.383-3.311,4.238-4.493
				c0.563-0.8,0.873-1.455,0.873-2.055c0-0.982-0.491-1.364-1.146-1.364c-0.836,0-1.164,0.782-1.2,1.619l-2.691-0.473
				c0.2-1.873,1.399-3.401,4.038-3.401c2.383,0,3.747,1.218,3.747,3.255c0,1.31-0.4,2.456-1.511,3.838
				c-0.455,0.546-1,1.146-1.654,1.801c-0.438,0.418-0.945,0.855-1.491,1.346L209.754,135.983L209.754,135.983z"/>
			<path d="M222.706,135.983l2.165-0.109h2.654v2.201h-7.565l-0.455-2.219c1.91-1.819,3.383-3.311,4.238-4.493
				c0.563-0.8,0.873-1.455,0.873-2.055c0-0.982-0.491-1.364-1.146-1.364c-0.836,0-1.164,0.782-1.2,1.619l-2.691-0.473
				c0.199-1.873,1.399-3.401,4.038-3.401c2.383,0,3.746,1.218,3.746,3.255c0,1.31-0.399,2.456-1.51,3.838
				c-0.455,0.546-1,1.146-1.655,1.801c-0.437,0.418-0.944,0.855-1.49,1.346L222.706,135.983L222.706,135.983z"/>
			<path d="M233.33,138.076v-0.491c0-2.273,0.673-3.965,1.419-5.42l0.927-1.746l1.328-2.255v-0.073c0,0-1,0.127-2.146,0.127h-3.237
				v-2.346h7.856l0.418,2.583l-2.492,4.22c-0.928,1.546-1.399,2.837-1.399,4.947v0.455L233.33,138.076L233.33,138.076z"/>
		</g>
	</g>
	<g>
		<path d="M309.198,135.121c0.155-1.4,0.347-2.092,0.588-3.233l1.297-5.93h3.13l1.365,5.913c0.312,1.331,0.468,2.092,0.604,3.216
			h0.069c0.086-1.072,0.312-2.42,0.674-3.942l1.211-5.187h2.627l-3.094,12.119h-3.112l-1.229-5.376
			c-0.38-1.643-0.553-2.593-0.69-3.769h-0.069c-0.173,1.245-0.328,2.144-0.588,3.216l-1.4,5.93h-3.129l-3.076-12.119h2.853
			l1.192,4.893c0.328,1.349,0.656,2.974,0.709,4.271h0.068V135.121z"/>
		<path d="M333.221,137.178c-0.761,0.623-1.711,1.089-3.578,1.089c-3.077,0-4.65-1.729-4.65-5.1c0-3.164,1.764-5.048,4.581-5.048
			c2.489,0,3.925,1.573,3.925,3.959c0,0.501-0.018,0.985-0.12,1.746h-5.826c0.034,1.539,0.726,2.386,2.386,2.386
			c1.055,0,1.78-0.501,2.144-0.882L333.221,137.178z M327.603,132.095h3.44v-0.259c0-1.141-0.484-1.746-1.539-1.746
			C328.327,130.089,327.637,130.954,327.603,132.095z"/>
		<path d="M338.835,124.973h2.575v3.769h0.068c0.381-0.259,1.09-0.536,1.902-0.536c2.213,0,3.854,1.21,3.854,4.806
			c0,2.974-1.746,5.238-4.997,5.238c-1.606,0-2.575-0.242-3.404-0.623L338.835,124.973L338.835,124.973z M344.644,133.219
			c0-2.178-0.761-2.87-1.885-2.87c-0.604,0-1.071,0.242-1.313,0.519v5.169c0.294,0.104,0.622,0.138,0.985,0.138
			C343.813,136.175,344.644,135.293,344.644,133.219z"/>
		<path d="M358.312,134.981c0-2.749-5.773-2.126-5.773-5.947c0-1.833,1.572-3.25,3.751-3.25c1.366,0,2.438,0.45,3.13,1.02
			l-0.848,1.072c-0.604-0.484-1.349-0.83-2.368-0.83c-1.418,0-2.266,0.795-2.266,1.902c0,2.8,5.774,2.213,5.774,5.947
			c0,1.833-1.452,3.354-4.046,3.354c-1.832,0-3.095-0.657-3.785-1.279l0.812-1.106c0.674,0.553,1.644,1.141,3.095,1.141
			C357.432,137.004,358.312,136.105,358.312,134.981z"/>
		<path d="M372.554,131.577v6.5h-1.35v-6.293c0-1.176-0.622-2.075-1.9-2.075c-1.297,0-2.179,0.847-2.507,1.66v6.708h-1.35v-13.122
			h1.35v4.754h0.068c0.276-0.328,1.124-1.193,2.714-1.193C371.396,128.517,372.554,129.658,372.554,131.577z"/>
		<path d="M378.323,133.392c0-2.904,1.089-4.893,3.941-4.893c2.87,0,3.854,1.936,3.854,4.806c0,2.904-1.105,4.927-3.959,4.927
			C379.307,138.231,378.323,136.279,378.323,133.392z M382.265,137.057c1.814,0,2.473-1.193,2.473-3.648
			c0-2.524-0.761-3.751-2.576-3.751c-1.779,0-2.454,1.193-2.454,3.63C379.705,135.812,380.467,137.057,382.265,137.057z"/>
		<path d="M394.759,138.094c-0.484,0-1.021-0.052-1.487-0.155v3.492h-1.331v-12.759h1.003l0.294,0.951h0.069
			c0.449-0.605,1.245-1.124,2.438-1.124c2.145,0,3.492,1.435,3.492,4.495C399.236,136.279,397.455,138.094,394.759,138.094z
			 M394.689,136.9c2.127,0,3.182-1.245,3.182-3.751c0-2.645-1.192-3.492-2.438-3.492c-1.158,0-1.832,0.709-2.161,1.314v5.723
			C393.67,136.832,394.31,136.9,394.689,136.9z"/>
		<path d="M404.036,133.53v-1.21h4.996v1.21H404.036z"/>
		<path d="M414.303,125.958h3.769c3.942,0,5.724,1.919,5.724,5.792c0,3.095-1.229,6.328-5.688,6.328h-3.804V125.958L414.303,125.958
			z M416.931,135.898h0.968c2.473,0,3.182-1.573,3.182-3.907c0-2.922-1.278-3.855-3.198-3.855h-0.95L416.931,135.898
			L416.931,135.898z"/>
		<path d="M436.927,137.178c-0.761,0.623-1.711,1.089-3.578,1.089c-3.077,0-4.65-1.729-4.65-5.1c0-3.164,1.764-5.048,4.581-5.048
			c2.489,0,3.925,1.573,3.925,3.959c0,0.501-0.018,0.985-0.12,1.746h-5.826c0.033,1.539,0.726,2.386,2.386,2.386
			c1.055,0,1.78-0.501,2.144-0.882L436.927,137.178z M431.309,132.095h3.439v-0.259c0-1.141-0.483-1.746-1.538-1.746
			C432.033,130.089,431.343,130.954,431.309,132.095z"/>
		<path d="M445.601,132.977c0.363,1.279,0.502,1.884,0.64,2.645h0.069c0.104-0.726,0.242-1.366,0.588-2.645l1.262-4.668h2.61
			l-3.077,9.768h-2.921l-3.319-9.768h2.817L445.601,132.977z"/>
		<path d="M463.194,137.178c-0.761,0.623-1.711,1.089-3.578,1.089c-3.077,0-4.649-1.729-4.649-5.1c0-3.164,1.763-5.048,4.581-5.048
			c2.488,0,3.925,1.573,3.925,3.959c0,0.501-0.019,0.985-0.121,1.746h-5.826c0.034,1.539,0.727,2.386,2.386,2.386
			c1.056,0,1.78-0.501,2.145-0.882L463.194,137.178z M457.575,132.095h3.44v-0.259c0-1.141-0.484-1.746-1.539-1.746
			C458.302,130.089,457.61,130.954,457.575,132.095z"/>
		<path d="M471.419,124.973V135c0,0.726,0.327,0.968,0.812,0.968c0.19,0,0.276-0.017,0.363-0.034v2.057
			c-0.312,0.121-0.675,0.242-1.245,0.242c-1.591,0-2.541-0.934-2.541-2.559v-10.702L471.419,124.973L471.419,124.973z"/>
		<path d="M477.173,133.236c0-3.008,1.262-5.1,4.495-5.1c3.37,0,4.426,2.006,4.426,5.031c0,3.008-1.279,5.1-4.514,5.1
			C478.228,138.267,477.173,136.262,477.173,133.236z M481.668,136.227c1.33,0,1.745-0.968,1.745-2.957
			c0-2.022-0.502-3.095-1.851-3.095c-1.192,0-1.711,0.968-1.711,2.957C479.853,135.155,480.354,136.227,481.668,136.227z"/>
		<path d="M495.476,138.128c-0.57,0-1.037-0.052-1.504-0.155v3.458h-2.593v-13.123h1.919l0.553,0.83h0.069
			c0.362-0.432,1.105-1.003,2.334-1.003c2.144,0,3.612,1.608,3.612,4.651C499.866,136.383,497.826,138.128,495.476,138.128z
			 M495.164,136.02c1.263,0,2.04-0.726,2.04-3.008c0-1.937-0.812-2.766-1.833-2.766c-0.588,0-1.123,0.276-1.435,0.743v4.737
			C494.317,135.951,494.905,136.02,495.164,136.02z"/>
		<path d="M512.861,137.178c-0.761,0.623-1.711,1.089-3.578,1.089c-3.077,0-4.649-1.729-4.649-5.1c0-3.164,1.763-5.048,4.581-5.048
			c2.488,0,3.925,1.573,3.925,3.959c0,0.501-0.019,0.985-0.121,1.746h-5.826c0.034,1.539,0.727,2.386,2.386,2.386
			c1.056,0,1.78-0.501,2.145-0.882L512.861,137.178z M507.242,132.095h3.44v-0.259c0-1.141-0.484-1.746-1.539-1.746
			C507.969,130.089,507.277,130.954,507.242,132.095z"/>
		<path d="M524.475,130.764c-0.346-0.069-0.778-0.086-1.124-0.086c-0.812,0-1.712,0.311-2.282,0.778v6.622h-2.593v-9.768h2.04
			l0.536,1.435h0.067c0.398-0.951,1.245-1.642,2.524-1.642c0.276,0,0.604,0.034,0.83,0.086L524.475,130.764L524.475,130.764z"/>
	</g>
	<path d="M64.446,126.681c0,6.056,4.909,10.956,10.956,10.956c0.268,0,0.494-0.184,0.554-0.439l0.565-2.456
		c0.062-0.267-0.078-0.541-0.33-0.652l-2.645-1.133c-0.231-0.099-0.5-0.033-0.661,0.163l-1.171,1.431
		c-1.848-0.867-3.334-2.374-4.185-4.185l1.432-1.17c0.196-0.158,0.262-0.43,0.163-0.662l-1.134-2.644
		c-0.108-0.25-0.383-0.39-0.649-0.328l-2.456,0.565C64.628,126.187,64.446,126.416,64.446,126.681z"/>
</g>
<g id="Layer_2">
</g>
</svg>
