<?xml version="1.0" encoding="utf-8"?>
<!-- Generator: Adobe Illustrator 16.0.0, SVG Export Plug-In . SVG Version: 6.00 Build 0)  -->
<!DOCTYPE svg PUBLIC "-//W3C//DTD SVG 1.1//EN" "http://www.w3.org/Graphics/SVG/1.1/DTD/svg11.dtd">
<svg version="1.1" id="Layer_1" xmlns="http://www.w3.org/2000/svg" xmlns:xlink="http://www.w3.org/1999/xlink" x="0px" y="0px"
	 width="350px" height="350px" viewBox="0 0 350 350" enable-background="new 0 0 350 350" xml:space="preserve">
<desc>Created with Fabric.js 1.7.22</desc>
<g id="icon" transform="translate(-1.9444444444444287 -1.9444444444444287) scale(3.89 3.89)">
	<path fill="#FFFFFF" d="M15.55,20.411l0.151,0.002c0.093,0.002,0.187,0.008,0.277,0.013c0.122,0.008,0.244,0.016,0.367,0.031
		c0.098,0.012,0.194,0.028,0.292,0.043c0.115,0.018,0.231,0.036,0.348,0.061c0.09,0.019,0.18,0.043,0.269,0.067l0.077,0.02
		c0.093,0.024,0.187,0.047,0.28,0.075c0.086,0.027,0.17,0.058,0.254,0.09l0.06,0.022l0.099,0.035
		c0.067,0.024,0.133,0.047,0.199,0.074c0.084,0.035,0.166,0.076,0.249,0.116l0.075,0.036l0.135,0.064
		c0.045,0.021,0.091,0.041,0.135,0.065c0.087,0.046,0.17,0.099,0.253,0.151l0.079,0.049l0.161,0.096l0.078,0.046
		c0.108,0.072,0.209,0.153,0.313,0.232l0.043,0.033c0.058,0.045,0.117,0.088,0.176,0.131l0.011,0.006
		c0.184,0.151,0.356,0.307,0.514,0.463l6.424,6.424c0.157,0.157,0.313,0.33,0.439,0.483l0.032,0.044
		c0.042,0.058,0.085,0.117,0.13,0.175l0.036,0.047c0.078,0.102,0.157,0.202,0.224,0.302l0.052,0.089l0.093,0.157l0.051,0.083
		c0.05,0.083,0.103,0.165,0.148,0.251c0.024,0.045,0.044,0.092,0.066,0.137l0.063,0.133l0.036,0.076
		c0.04,0.082,0.08,0.164,0.115,0.248c0.027,0.064,0.049,0.129,0.072,0.193l0.037,0.103l0.023,0.063
		c0.03,0.085,0.063,0.169,0.089,0.256c0.028,0.089,0.049,0.18,0.073,0.271l0.02,0.077c0.024,0.093,0.049,0.186,0.068,0.281
		c0.024,0.113,0.042,0.228,0.06,0.342c0.015,0.098,0.032,0.196,0.044,0.297c0.014,0.121,0.023,0.243,0.03,0.363
		c0.006,0.092,0.011,0.185,0.013,0.277c0.003,0.129,0.002,0.256-0.002,0.382c-0.003,0.087-0.007,0.173-0.012,0.26
		c-0.009,0.133-0.021,0.267-0.037,0.397c-0.01,0.08-0.022,0.159-0.035,0.24c-0.022,0.138-0.047,0.275-0.076,0.412
		c-0.014,0.064-0.031,0.127-0.052,0.212c-0.036,0.142-0.074,0.284-0.118,0.422l-0.035,0.097l-0.031,0.088
		c-0.051,0.145-0.104,0.29-0.16,0.421l-0.022,0.048l-0.054,0.116c-0.068,0.149-0.137,0.296-0.21,0.429l-0.076,0.13
		c-0.08,0.139-0.161,0.278-0.251,0.412c-0.027,0.036-0.054,0.073-0.08,0.11c-0.134,0.192-0.247,0.34-0.352,0.466
		c-0.164,0.196-0.295,0.342-0.414,0.46l-4.346,4.346c-1.758,1.758-1.758,4.62,0,6.378l18.786,18.786
		c0.852,0.852,1.984,1.321,3.189,1.321c1.205,0,2.337-0.469,3.189-1.321l4.346-4.346c0.12-0.12,0.262-0.248,0.461-0.413
		c0.127-0.106,0.274-0.217,0.467-0.352c0.035-0.025,0.071-0.051,0.107-0.078c0.136-0.091,0.276-0.172,0.418-0.255l0.111-0.067
		c0.146-0.08,0.294-0.15,0.445-0.219l0.113-0.053l0.034-0.016c0.143-0.062,0.289-0.114,0.438-0.167l0.087-0.03l0.091-0.032
		c0.141-0.045,0.283-0.083,0.452-0.126c0.061-0.015,0.123-0.032,0.185-0.046c0.137-0.03,0.275-0.054,0.416-0.077
		c0.078-0.013,0.156-0.024,0.232-0.033c0.133-0.016,0.267-0.029,0.404-0.038c0.085-0.006,0.17-0.01,0.253-0.012
		c0.078-0.002,0.156-0.004,0.234-0.004l0.151,0.002c0.094,0.002,0.187,0.008,0.277,0.013c0.122,0.008,0.244,0.016,0.367,0.03
		c0.098,0.012,0.195,0.028,0.292,0.043c0.115,0.018,0.23,0.036,0.348,0.061c0.09,0.019,0.18,0.043,0.27,0.067l0.077,0.02
		c0.093,0.024,0.187,0.047,0.28,0.075c0.086,0.027,0.169,0.058,0.255,0.089l0.061,0.022l0.099,0.035
		c0.067,0.024,0.133,0.047,0.199,0.074c0.084,0.035,0.166,0.076,0.249,0.115l0.075,0.036l0.135,0.064
		c0.045,0.021,0.091,0.041,0.136,0.065c0.087,0.046,0.169,0.099,0.254,0.151l0.079,0.049l0.161,0.096l0.078,0.046
		c0.108,0.072,0.21,0.153,0.314,0.232l0.042,0.032c0.058,0.045,0.117,0.088,0.176,0.131l0.011,0.006
		c0.184,0.151,0.356,0.307,0.514,0.463l6.424,6.424c0.157,0.157,0.313,0.33,0.439,0.483l0.031,0.043
		c0.042,0.058,0.085,0.117,0.13,0.176l0.036,0.046c0.078,0.102,0.157,0.202,0.224,0.302l0.052,0.089l0.094,0.157l0.05,0.083
		c0.05,0.083,0.103,0.165,0.148,0.251c0.024,0.044,0.044,0.091,0.066,0.137l0.063,0.133l0.036,0.076
		c0.04,0.082,0.08,0.164,0.115,0.248c0.027,0.064,0.049,0.129,0.073,0.194l0.037,0.103l0.023,0.063
		c0.031,0.085,0.063,0.169,0.09,0.256c0.028,0.09,0.05,0.18,0.073,0.272l0.02,0.076c0.024,0.093,0.049,0.187,0.07,0.283
		c0.024,0.113,0.042,0.228,0.06,0.342c0.015,0.098,0.031,0.196,0.044,0.297c0.014,0.121,0.023,0.243,0.03,0.363
		c0.006,0.092,0.012,0.185,0.013,0.278c0.003,0.128,0.002,0.256-0.002,0.382c-0.003,0.086-0.007,0.173-0.013,0.26
		c-0.009,0.134-0.021,0.267-0.037,0.396c-0.01,0.08-0.022,0.159-0.034,0.24c-0.022,0.138-0.047,0.276-0.076,0.412
		c-0.014,0.064-0.031,0.127-0.052,0.212c-0.036,0.142-0.075,0.284-0.118,0.422l-0.034,0.098l-0.03,0.087
		c-0.051,0.145-0.104,0.29-0.16,0.421l-0.022,0.048l-0.054,0.116c-0.068,0.149-0.137,0.296-0.21,0.429l-0.076,0.129
		c-0.08,0.139-0.161,0.278-0.251,0.412c-0.028,0.036-0.054,0.073-0.08,0.109c-0.135,0.192-0.247,0.34-0.352,0.466
		c-0.164,0.196-0.295,0.342-0.413,0.461l-0.027,0.027l-0.027,0.028c-3.008,3.162-7.572,4.902-12.852,4.902
		c-10.026,0-21.599-6.096-32.602-17.182C11.632,56.829,5.535,45.166,5.642,35.08c0.054-5.167,1.795-9.641,4.902-12.597l0.028-0.027
		l0.026-0.027c0.12-0.12,0.262-0.248,0.461-0.413c0.126-0.106,0.274-0.217,0.467-0.352c0.035-0.025,0.071-0.05,0.108-0.078
		c0.135-0.091,0.275-0.172,0.418-0.254l0.111-0.068c0.146-0.08,0.294-0.15,0.445-0.219l0.113-0.053l0.035-0.016
		c0.144-0.062,0.289-0.114,0.438-0.167l0.087-0.031l0.092-0.032c0.141-0.045,0.283-0.083,0.45-0.126
		c0.062-0.015,0.124-0.031,0.187-0.046c0.137-0.031,0.275-0.054,0.416-0.077c0.078-0.012,0.157-0.024,0.232-0.033
		c0.133-0.016,0.267-0.029,0.404-0.038c0.085-0.006,0.171-0.009,0.254-0.012C15.394,20.413,15.472,20.411,15.55,20.411
		 M15.55,17.326c-0.109,0-0.216,0.002-0.325,0.005c-0.123,0.004-0.246,0.01-0.37,0.017c-0.193,0.012-0.384,0.031-0.576,0.054
		c-0.112,0.014-0.225,0.031-0.336,0.049c-0.2,0.032-0.398,0.068-0.597,0.111c-0.101,0.022-0.201,0.048-0.301,0.073
		c-0.207,0.052-0.411,0.108-0.615,0.173c-0.087,0.029-0.174,0.06-0.261,0.09c-0.212,0.074-0.422,0.153-0.63,0.242
		c-0.073,0.031-0.145,0.068-0.217,0.1c-0.217,0.099-0.432,0.202-0.641,0.317c-0.057,0.032-0.111,0.067-0.168,0.099
		c-0.222,0.128-0.441,0.259-0.655,0.404c-0.035,0.024-0.068,0.05-0.102,0.075c-0.231,0.161-0.457,0.33-0.676,0.513l0,0
		c-0.227,0.19-0.45,0.386-0.663,0.598c-8.907,8.475-9.704,28.105,12.216,49.861c12.99,13.087,25.222,18.078,34.774,18.078
		c6.447,0,11.672-2.272,15.087-5.861c0.213-0.212,0.409-0.437,0.598-0.664l0,0c0.182-0.218,0.35-0.444,0.511-0.674
		c0.025-0.035,0.052-0.07,0.077-0.105c0.145-0.213,0.275-0.431,0.402-0.651c0.033-0.057,0.069-0.113,0.101-0.171
		c0.114-0.21,0.217-0.423,0.315-0.638c0.034-0.073,0.071-0.147,0.102-0.221c0.089-0.207,0.167-0.415,0.24-0.626
		c0.031-0.088,0.064-0.175,0.092-0.264c0.065-0.202,0.121-0.406,0.172-0.612c0.026-0.101,0.051-0.202,0.074-0.304
		c0.043-0.197,0.079-0.395,0.11-0.594c0.018-0.113,0.034-0.227,0.049-0.34c0.024-0.191,0.041-0.381,0.054-0.573
		c0.009-0.124,0.014-0.248,0.018-0.373c0.006-0.183,0.007-0.366,0.002-0.55c-0.003-0.133-0.011-0.266-0.019-0.399
		c-0.012-0.175-0.025-0.349-0.045-0.523c-0.016-0.142-0.038-0.283-0.061-0.424c-0.027-0.165-0.053-0.33-0.088-0.494
		c-0.031-0.149-0.07-0.296-0.108-0.444c-0.04-0.154-0.079-0.31-0.127-0.462c-0.048-0.154-0.105-0.306-0.16-0.458
		c-0.052-0.144-0.102-0.288-0.161-0.43c-0.066-0.159-0.142-0.314-0.217-0.47c-0.063-0.132-0.122-0.264-0.191-0.393
		c-0.088-0.163-0.187-0.323-0.285-0.483c-0.071-0.115-0.135-0.233-0.21-0.346c-0.118-0.177-0.25-0.347-0.38-0.518
		c-0.066-0.09-0.128-0.183-0.199-0.271c-0.209-0.255-0.431-0.503-0.669-0.74l-6.424-6.424c-0.238-0.238-0.486-0.46-0.74-0.669
		c-0.088-0.071-0.18-0.132-0.269-0.201c-0.172-0.13-0.342-0.263-0.519-0.381c-0.112-0.075-0.23-0.139-0.344-0.209
		c-0.16-0.098-0.32-0.197-0.484-0.286c-0.129-0.069-0.261-0.128-0.392-0.19c-0.156-0.074-0.311-0.152-0.47-0.217
		c-0.142-0.059-0.286-0.109-0.431-0.161c-0.151-0.055-0.303-0.112-0.456-0.159c-0.154-0.048-0.31-0.087-0.466-0.128
		c-0.147-0.038-0.292-0.076-0.44-0.107c-0.165-0.034-0.331-0.062-0.497-0.089c-0.14-0.022-0.28-0.044-0.421-0.06
		c-0.175-0.02-0.35-0.034-0.525-0.045c-0.133-0.008-0.265-0.015-0.398-0.019c-0.075-0.002-0.15-0.003-0.227-0.003
		c-0.109,0-0.216,0.002-0.325,0.005c-0.123,0.004-0.246,0.01-0.37,0.017c-0.193,0.013-0.384,0.031-0.576,0.054
		c-0.112,0.015-0.225,0.03-0.336,0.049c-0.2,0.031-0.398,0.068-0.596,0.11c-0.101,0.022-0.201,0.048-0.301,0.074
		c-0.207,0.052-0.412,0.107-0.615,0.173c-0.088,0.028-0.174,0.06-0.261,0.091c-0.212,0.074-0.422,0.152-0.63,0.242
		c-0.074,0.031-0.145,0.068-0.217,0.1c-0.216,0.099-0.432,0.202-0.641,0.318c-0.057,0.031-0.111,0.067-0.168,0.099
		c-0.222,0.128-0.441,0.259-0.655,0.404c-0.035,0.024-0.068,0.05-0.102,0.075c-0.231,0.161-0.457,0.33-0.677,0.512l0,0
		c-0.227,0.19-0.45,0.386-0.663,0.598l-4.346,4.346c-0.278,0.278-0.643,0.417-1.008,0.417c-0.365,0-0.73-0.139-1.008-0.417
		L24.709,47.248c-0.556-0.557-0.556-1.46,0-2.016l4.346-4.346c0.212-0.212,0.409-0.436,0.598-0.663l0,0
		c0.182-0.218,0.35-0.444,0.511-0.674c0.025-0.035,0.052-0.07,0.077-0.105c0.145-0.213,0.275-0.431,0.402-0.651
		c0.034-0.057,0.069-0.113,0.101-0.172c0.114-0.21,0.217-0.423,0.316-0.638c0.034-0.073,0.071-0.147,0.102-0.221
		c0.089-0.207,0.167-0.415,0.24-0.626c0.031-0.088,0.064-0.175,0.091-0.264c0.065-0.202,0.121-0.406,0.172-0.612
		c0.026-0.101,0.051-0.202,0.073-0.304c0.043-0.197,0.079-0.395,0.11-0.594c0.018-0.113,0.034-0.227,0.049-0.34
		c0.024-0.19,0.041-0.381,0.054-0.573c0.009-0.124,0.014-0.248,0.018-0.373c0.006-0.183,0.007-0.366,0.002-0.55
		c-0.003-0.134-0.011-0.266-0.019-0.399c-0.011-0.175-0.025-0.349-0.045-0.523c-0.016-0.142-0.038-0.283-0.061-0.424
		c-0.026-0.165-0.053-0.33-0.087-0.494c-0.032-0.149-0.07-0.296-0.108-0.444c-0.04-0.154-0.079-0.31-0.127-0.462
		c-0.048-0.155-0.105-0.306-0.16-0.458c-0.053-0.144-0.102-0.288-0.161-0.43c-0.066-0.159-0.142-0.313-0.217-0.47
		c-0.063-0.132-0.122-0.264-0.191-0.393c-0.087-0.164-0.187-0.323-0.285-0.483c-0.07-0.115-0.134-0.233-0.21-0.346
		c-0.118-0.177-0.25-0.347-0.38-0.518c-0.069-0.09-0.13-0.183-0.202-0.271c-0.209-0.255-0.431-0.503-0.669-0.74l-6.424-6.424
		c-0.238-0.238-0.486-0.46-0.74-0.669c-0.087-0.071-0.18-0.132-0.269-0.201c-0.171-0.131-0.342-0.263-0.519-0.381
		c-0.112-0.075-0.23-0.139-0.344-0.209c-0.16-0.098-0.32-0.197-0.484-0.286c-0.128-0.069-0.261-0.128-0.392-0.19
		c-0.156-0.074-0.311-0.152-0.471-0.217c-0.142-0.059-0.286-0.109-0.431-0.161c-0.152-0.055-0.303-0.111-0.457-0.159
		c-0.154-0.048-0.31-0.087-0.466-0.128c-0.147-0.038-0.293-0.076-0.44-0.107c-0.165-0.034-0.331-0.062-0.498-0.089
		c-0.14-0.022-0.28-0.044-0.421-0.06c-0.175-0.02-0.35-0.034-0.525-0.045c-0.132-0.009-0.265-0.015-0.398-0.019
		C15.701,17.327,15.625,17.326,15.55,17.326L15.55,17.326z"/>
	<path fill="#FFFFFF" d="M42.247,49.927c-0.373,0-0.738-0.145-1.011-0.418c-0.406-0.406-0.53-1.014-0.314-1.546l4.016-9.933
		c-5.594-9.146-4.205-21.122,3.43-28.756c9.127-9.128,23.978-9.127,33.103,0c9.126,9.126,9.126,23.977,0,33.104
		c-7.633,7.633-19.608,9.023-28.753,3.43l-9.936,4.015C42.608,49.893,42.427,49.927,42.247,49.927z M52.863,42.777
		c0.275,0,0.549,0.079,0.785,0.235c8.094,5.32,18.943,4.2,25.801-2.657c8.012-8.013,8.012-21.049,0-29.062
		c-8.011-8.011-21.049-8.012-29.062,0c-6.859,6.86-7.976,17.711-2.656,25.804c0.258,0.393,0.307,0.886,0.131,1.322l-3.029,7.491
		l7.493-3.028C52.499,42.812,52.681,42.777,52.863,42.777z"/>
</g>
<g>
	<path fill="#FFFFFF" d="M217.758,76.328c-4.064,0.339-10.049,0.678-16.71,0.678h-17.954V64.472h47.085l2.937,12.985
		c-15.243,20.211-23.825,41.891-23.825,62.442v2.484h-14.002v-2.709c0-21.68,9.938-45.505,22.47-62.894V76.328z"/>
	<path fill="#FFFFFF" d="M259.424,59.956h11.856l-31.504,99.365h-11.743L259.424,59.956z"/>
	<path fill="#FFFFFF" d="M306.622,76.328c-4.065,0.339-10.05,0.678-16.712,0.678h-17.954V64.472h47.086l2.936,12.985
		c-15.243,20.211-23.824,41.891-23.824,62.442v2.484h-14.002v-2.709c0-21.68,9.936-45.505,22.471-62.894V76.328z"/>
</g>
</svg>
